<mxfile host="app.diagrams.net" modified="2020-05-26T04:22:02.644Z" agent="5.0 (Macintosh; Intel Mac OS X 10_14_6) AppleWebKit/537.36 (KHTML, like Gecko) Chrome/83.0.4103.61 Safari/537.36" etag="JQCH1FN_GkwZf1w2Ut6s" version="13.1.3" type="github">
  <diagram id="1SOZtOeF8l6XhYHRm-za" name="Page-1">
    <mxGraphModel dx="1318" dy="739" grid="1" gridSize="10" guides="1" tooltips="1" connect="1" arrows="1" fold="1" page="1" pageScale="1" pageWidth="827" pageHeight="1169" math="0" shadow="0">
      <root>
        <mxCell id="0" />
        <mxCell id="1" parent="0" />
        <mxCell id="JQEy4xFTPfn_6e3LgADh-1" value="时序数据" style="rounded=0;whiteSpace=wrap;html=1;" parent="1" vertex="1">
          <mxGeometry x="110" y="600" width="120" height="60" as="geometry" />
        </mxCell>
        <mxCell id="JQEy4xFTPfn_6e3LgADh-2" value="拓扑数据&lt;br&gt;trace 100%" style="rounded=0;whiteSpace=wrap;html=1;" parent="1" vertex="1">
          <mxGeometry x="270" y="600" width="120" height="60" as="geometry" />
        </mxCell>
        <mxCell id="JQEy4xFTPfn_6e3LgADh-3" value="资金核对" style="rounded=0;whiteSpace=wrap;html=1;" parent="1" vertex="1">
          <mxGeometry x="430" y="600" width="120" height="60" as="geometry" />
        </mxCell>
        <mxCell id="JQEy4xFTPfn_6e3LgADh-4" value="单笔全风险" style="rounded=0;whiteSpace=wrap;html=1;" parent="1" vertex="1">
          <mxGeometry x="590" y="600" width="120" height="60" as="geometry" />
        </mxCell>
        <mxCell id="JQEy4xFTPfn_6e3LgADh-5" value="通用规则" style="rounded=0;whiteSpace=wrap;html=1;" parent="1" vertex="1">
          <mxGeometry x="110" y="525" width="120" height="60" as="geometry" />
        </mxCell>
        <mxCell id="JQEy4xFTPfn_6e3LgADh-6" value="实时算法" style="rounded=0;whiteSpace=wrap;html=1;" parent="1" vertex="1">
          <mxGeometry x="270" y="525" width="120" height="60" as="geometry" />
        </mxCell>
        <mxCell id="JQEy4xFTPfn_6e3LgADh-7" value="离线训练" style="rounded=0;whiteSpace=wrap;html=1;" parent="1" vertex="1">
          <mxGeometry x="430" y="525" width="120" height="60" as="geometry" />
        </mxCell>
        <mxCell id="JQEy4xFTPfn_6e3LgADh-8" value="影响面模型" style="rounded=0;whiteSpace=wrap;html=1;" parent="1" vertex="1">
          <mxGeometry x="590" y="525" width="120" height="60" as="geometry" />
        </mxCell>
        <mxCell id="JQEy4xFTPfn_6e3LgADh-10" value="" style="rounded=0;whiteSpace=wrap;html=1;" parent="1" vertex="1">
          <mxGeometry x="110" y="300" width="120" height="210" as="geometry" />
        </mxCell>
        <mxCell id="ywDv_ColvlXOYt9Vahqf-1" value="通用模型" style="text;html=1;align=center;verticalAlign=middle;resizable=0;points=[];autosize=1;" vertex="1" parent="1">
          <mxGeometry x="110" y="280" width="60" height="20" as="geometry" />
        </mxCell>
        <mxCell id="ywDv_ColvlXOYt9Vahqf-2" value="计算" style="text;html=1;align=center;verticalAlign=middle;resizable=0;points=[];autosize=1;" vertex="1" parent="1">
          <mxGeometry x="250" y="280" width="40" height="20" as="geometry" />
        </mxCell>
        <mxCell id="ywDv_ColvlXOYt9Vahqf-3" value="应用业务画像" style="text;html=1;align=center;verticalAlign=middle;resizable=0;points=[];autosize=1;" vertex="1" parent="1">
          <mxGeometry x="560" y="280" width="90" height="20" as="geometry" />
        </mxCell>
        <mxCell id="ywDv_ColvlXOYt9Vahqf-4" value="" style="rounded=0;whiteSpace=wrap;html=1;" vertex="1" parent="1">
          <mxGeometry x="250" y="300" width="300" height="210" as="geometry" />
        </mxCell>
        <mxCell id="ywDv_ColvlXOYt9Vahqf-5" value="" style="rounded=0;whiteSpace=wrap;html=1;" vertex="1" parent="1">
          <mxGeometry x="570" y="300" width="140" height="210" as="geometry" />
        </mxCell>
        <mxCell id="ywDv_ColvlXOYt9Vahqf-6" value="自愈" style="rounded=0;whiteSpace=wrap;html=1;" vertex="1" parent="1">
          <mxGeometry x="110" y="120" width="120" height="100" as="geometry" />
        </mxCell>
        <mxCell id="ywDv_ColvlXOYt9Vahqf-7" value="应用健康度" style="rounded=0;whiteSpace=wrap;html=1;" vertex="1" parent="1">
          <mxGeometry x="270" y="120" width="120" height="100" as="geometry" />
        </mxCell>
        <mxCell id="ywDv_ColvlXOYt9Vahqf-8" value="变更防御" style="rounded=0;whiteSpace=wrap;html=1;" vertex="1" parent="1">
          <mxGeometry x="430" y="120" width="120" height="100" as="geometry" />
        </mxCell>
        <mxCell id="ywDv_ColvlXOYt9Vahqf-9" value="风险识别&amp;amp;定位" style="rounded=0;whiteSpace=wrap;html=1;" vertex="1" parent="1">
          <mxGeometry x="590" y="120" width="120" height="100" as="geometry" />
        </mxCell>
        <mxCell id="ywDv_ColvlXOYt9Vahqf-10" value="1. 容量风险识别&lt;br&gt;2. 自愈手段决策&lt;br&gt;3. 容量瓶颈识别" style="text;html=1;align=center;verticalAlign=middle;resizable=0;points=[];autosize=1;" vertex="1" parent="1">
          <mxGeometry x="96" y="217" width="100" height="50" as="geometry" />
        </mxCell>
        <mxCell id="ywDv_ColvlXOYt9Vahqf-11" value="1. 日常风险识别&lt;br&gt;2. 应急辅助定位" style="text;html=1;align=center;verticalAlign=middle;resizable=0;points=[];autosize=1;" vertex="1" parent="1">
          <mxGeometry x="575" y="235" width="100" height="30" as="geometry" />
        </mxCell>
        <mxCell id="ywDv_ColvlXOYt9Vahqf-12" value="1. 业务运行状态&lt;br&gt;2. 实时拓扑运行状态检查&lt;br&gt;3. 基于实时拓扑的压测熔断" style="text;html=1;align=center;verticalAlign=middle;resizable=0;points=[];autosize=1;" vertex="1" parent="1">
          <mxGeometry x="233" y="217" width="160" height="50" as="geometry" />
        </mxCell>
        <mxCell id="ywDv_ColvlXOYt9Vahqf-13" value="1. 应用风险识别&amp;amp;影响面变更防御&lt;br&gt;2. 引入实时拓扑&lt;br&gt;3. 容量计划" style="text;html=1;align=center;verticalAlign=middle;resizable=0;points=[];autosize=1;" vertex="1" parent="1">
          <mxGeometry x="385" y="215" width="190" height="50" as="geometry" />
        </mxCell>
        <mxCell id="ywDv_ColvlXOYt9Vahqf-14" value="业务场景" style="text;html=1;align=center;verticalAlign=middle;resizable=0;points=[];autosize=1;" vertex="1" parent="1">
          <mxGeometry x="110" y="330" width="60" height="20" as="geometry" />
        </mxCell>
        <mxCell id="ywDv_ColvlXOYt9Vahqf-15" value="计算" style="text;html=1;align=center;verticalAlign=middle;resizable=0;points=[];autosize=1;" vertex="1" parent="1">
          <mxGeometry x="120" y="395" width="40" height="20" as="geometry" />
        </mxCell>
        <mxCell id="ywDv_ColvlXOYt9Vahqf-16" value="数据" style="text;html=1;align=center;verticalAlign=middle;resizable=0;points=[];autosize=1;" vertex="1" parent="1">
          <mxGeometry x="120" y="463" width="40" height="20" as="geometry" />
        </mxCell>
        <mxCell id="ywDv_ColvlXOYt9Vahqf-17" value="容量风险识别" style="text;html=1;align=center;verticalAlign=middle;resizable=0;points=[];autosize=1;" vertex="1" parent="1">
          <mxGeometry x="570" y="340" width="90" height="20" as="geometry" />
        </mxCell>
        <mxCell id="ywDv_ColvlXOYt9Vahqf-20" value="应用运行状态" style="text;html=1;align=center;verticalAlign=middle;resizable=0;points=[];autosize=1;" vertex="1" parent="1">
          <mxGeometry x="575" y="400" width="90" height="20" as="geometry" />
        </mxCell>
        <mxCell id="ywDv_ColvlXOYt9Vahqf-21" value="风险识别" style="text;html=1;align=center;verticalAlign=middle;resizable=0;points=[];autosize=1;" vertex="1" parent="1">
          <mxGeometry x="585" y="460" width="60" height="20" as="geometry" />
        </mxCell>
        <mxCell id="ywDv_ColvlXOYt9Vahqf-22" value="应用" style="text;html=1;align=center;verticalAlign=middle;resizable=0;points=[];autosize=1;" vertex="1" parent="1">
          <mxGeometry x="374" y="380" width="40" height="20" as="geometry" />
        </mxCell>
        <mxCell id="ywDv_ColvlXOYt9Vahqf-23" value="中间件" style="text;html=1;align=center;verticalAlign=middle;resizable=0;points=[];autosize=1;" vertex="1" parent="1">
          <mxGeometry x="320" y="415" width="50" height="20" as="geometry" />
        </mxCell>
        <mxCell id="ywDv_ColvlXOYt9Vahqf-24" value="容器" style="text;html=1;align=center;verticalAlign=middle;resizable=0;points=[];autosize=1;" vertex="1" parent="1">
          <mxGeometry x="430" y="420" width="40" height="20" as="geometry" />
        </mxCell>
        <mxCell id="ywDv_ColvlXOYt9Vahqf-25" value="接口" style="text;html=1;align=center;verticalAlign=middle;resizable=0;points=[];autosize=1;" vertex="1" parent="1">
          <mxGeometry x="310" y="340" width="40" height="20" as="geometry" />
        </mxCell>
        <mxCell id="ywDv_ColvlXOYt9Vahqf-26" value="基础设施" style="text;html=1;align=center;verticalAlign=middle;resizable=0;points=[];autosize=1;" vertex="1" parent="1">
          <mxGeometry x="364" y="460" width="60" height="20" as="geometry" />
        </mxCell>
        <mxCell id="ywDv_ColvlXOYt9Vahqf-27" value="统计" style="text;html=1;align=center;verticalAlign=middle;resizable=0;points=[];autosize=1;" vertex="1" parent="1">
          <mxGeometry x="745" y="275" width="40" height="20" as="geometry" />
        </mxCell>
        <mxCell id="ywDv_ColvlXOYt9Vahqf-28" value="" style="rounded=0;whiteSpace=wrap;html=1;" vertex="1" parent="1">
          <mxGeometry x="730" y="295" width="140" height="210" as="geometry" />
        </mxCell>
        <mxCell id="ywDv_ColvlXOYt9Vahqf-29" value="容量风险识别" style="text;html=1;align=center;verticalAlign=middle;resizable=0;points=[];autosize=1;" vertex="1" parent="1">
          <mxGeometry x="730" y="335" width="90" height="20" as="geometry" />
        </mxCell>
        <mxCell id="ywDv_ColvlXOYt9Vahqf-30" value="应用运行状态" style="text;html=1;align=center;verticalAlign=middle;resizable=0;points=[];autosize=1;" vertex="1" parent="1">
          <mxGeometry x="735" y="395" width="90" height="20" as="geometry" />
        </mxCell>
        <mxCell id="ywDv_ColvlXOYt9Vahqf-31" value="风险识别" style="text;html=1;align=center;verticalAlign=middle;resizable=0;points=[];autosize=1;" vertex="1" parent="1">
          <mxGeometry x="745" y="455" width="60" height="20" as="geometry" />
        </mxCell>
        <mxCell id="ywDv_ColvlXOYt9Vahqf-34" value="指标" style="text;html=1;align=center;verticalAlign=middle;resizable=0;points=[];autosize=1;" vertex="1" parent="1">
          <mxGeometry x="1095" y="421" width="40" height="20" as="geometry" />
        </mxCell>
        <mxCell id="ywDv_ColvlXOYt9Vahqf-35" value="离线结论" style="text;html=1;align=center;verticalAlign=middle;resizable=0;points=[];autosize=1;" vertex="1" parent="1">
          <mxGeometry x="1096" y="461" width="60" height="20" as="geometry" />
        </mxCell>
        <mxCell id="ywDv_ColvlXOYt9Vahqf-36" value="应用特征" style="text;html=1;align=center;verticalAlign=middle;resizable=0;points=[];autosize=1;" vertex="1" parent="1">
          <mxGeometry x="1096" y="505" width="60" height="20" as="geometry" />
        </mxCell>
        <mxCell id="ywDv_ColvlXOYt9Vahqf-37" value="实时计算" style="text;html=1;align=center;verticalAlign=middle;resizable=0;points=[];autosize=1;" vertex="1" parent="1">
          <mxGeometry x="1273" y="421" width="60" height="20" as="geometry" />
        </mxCell>
        <mxCell id="ywDv_ColvlXOYt9Vahqf-38" value="规则判定" style="text;html=1;align=center;verticalAlign=middle;resizable=0;points=[];autosize=1;" vertex="1" parent="1">
          <mxGeometry x="1276" y="466" width="60" height="20" as="geometry" />
        </mxCell>
        <mxCell id="ywDv_ColvlXOYt9Vahqf-39" value="模型选择" style="text;html=1;align=center;verticalAlign=middle;resizable=0;points=[];autosize=1;" vertex="1" parent="1">
          <mxGeometry x="1273" y="502" width="60" height="20" as="geometry" />
        </mxCell>
        <mxCell id="ywDv_ColvlXOYt9Vahqf-40" value="" style="shape=flexArrow;endArrow=classic;html=1;" edge="1" parent="1">
          <mxGeometry width="50" height="50" relative="1" as="geometry">
            <mxPoint x="1203" y="483" as="sourcePoint" />
            <mxPoint x="1243" y="483" as="targetPoint" />
          </mxGeometry>
        </mxCell>
        <mxCell id="ywDv_ColvlXOYt9Vahqf-41" value="指标" style="text;html=1;align=center;verticalAlign=middle;resizable=0;points=[];autosize=1;" vertex="1" parent="1">
          <mxGeometry x="1100" y="220" width="40" height="20" as="geometry" />
        </mxCell>
        <mxCell id="ywDv_ColvlXOYt9Vahqf-42" value="离线结论" style="text;html=1;align=center;verticalAlign=middle;resizable=0;points=[];autosize=1;" vertex="1" parent="1">
          <mxGeometry x="1101" y="260" width="60" height="20" as="geometry" />
        </mxCell>
        <mxCell id="ywDv_ColvlXOYt9Vahqf-43" value="接口特征" style="text;html=1;align=center;verticalAlign=middle;resizable=0;points=[];autosize=1;" vertex="1" parent="1">
          <mxGeometry x="1101" y="304" width="60" height="20" as="geometry" />
        </mxCell>
        <mxCell id="ywDv_ColvlXOYt9Vahqf-44" value="实时计算" style="text;html=1;align=center;verticalAlign=middle;resizable=0;points=[];autosize=1;" vertex="1" parent="1">
          <mxGeometry x="1278" y="220" width="60" height="20" as="geometry" />
        </mxCell>
        <mxCell id="ywDv_ColvlXOYt9Vahqf-45" value="规则判定" style="text;html=1;align=center;verticalAlign=middle;resizable=0;points=[];autosize=1;" vertex="1" parent="1">
          <mxGeometry x="1281" y="265" width="60" height="20" as="geometry" />
        </mxCell>
        <mxCell id="ywDv_ColvlXOYt9Vahqf-46" value="模型选择" style="text;html=1;align=center;verticalAlign=middle;resizable=0;points=[];autosize=1;" vertex="1" parent="1">
          <mxGeometry x="1278" y="301" width="60" height="20" as="geometry" />
        </mxCell>
        <mxCell id="ywDv_ColvlXOYt9Vahqf-47" value="" style="shape=flexArrow;endArrow=classic;html=1;" edge="1" parent="1">
          <mxGeometry width="50" height="50" relative="1" as="geometry">
            <mxPoint x="1208" y="282" as="sourcePoint" />
            <mxPoint x="1248" y="282" as="targetPoint" />
          </mxGeometry>
        </mxCell>
        <mxCell id="ywDv_ColvlXOYt9Vahqf-48" value="接口" style="text;html=1;align=center;verticalAlign=middle;resizable=0;points=[];autosize=1;" vertex="1" parent="1">
          <mxGeometry x="1055" y="182" width="40" height="20" as="geometry" />
        </mxCell>
        <mxCell id="ywDv_ColvlXOYt9Vahqf-49" value="应用" style="text;html=1;align=center;verticalAlign=middle;resizable=0;points=[];autosize=1;" vertex="1" parent="1">
          <mxGeometry x="1050" y="380" width="40" height="20" as="geometry" />
        </mxCell>
        <mxCell id="ywDv_ColvlXOYt9Vahqf-50" value="接口计算结论" style="text;html=1;align=center;verticalAlign=middle;resizable=0;points=[];autosize=1;" vertex="1" parent="1">
          <mxGeometry x="1083" y="548" width="90" height="20" as="geometry" />
        </mxCell>
        <mxCell id="ywDv_ColvlXOYt9Vahqf-51" value="依赖中间件&amp;amp;基础设施结论" style="text;html=1;align=center;verticalAlign=middle;resizable=0;points=[];autosize=1;" vertex="1" parent="1">
          <mxGeometry x="1057" y="591" width="160" height="20" as="geometry" />
        </mxCell>
        <mxCell id="ywDv_ColvlXOYt9Vahqf-52" value="中间件" style="text;html=1;align=center;verticalAlign=middle;resizable=0;points=[];autosize=1;" vertex="1" parent="1">
          <mxGeometry x="1053.5" y="640" width="50" height="20" as="geometry" />
        </mxCell>
        <mxCell id="ywDv_ColvlXOYt9Vahqf-53" value="入口流量" style="text;html=1;align=center;verticalAlign=middle;resizable=0;points=[];autosize=1;" vertex="1" parent="1">
          <mxGeometry x="1141.5" y="642" width="60" height="20" as="geometry" />
        </mxCell>
        <mxCell id="ywDv_ColvlXOYt9Vahqf-54" value="运行状态" style="text;html=1;align=center;verticalAlign=middle;resizable=0;points=[];autosize=1;" vertex="1" parent="1">
          <mxGeometry x="1142.5" y="681" width="60" height="20" as="geometry" />
        </mxCell>
        <mxCell id="ywDv_ColvlXOYt9Vahqf-55" value="基础设施" style="text;html=1;align=center;verticalAlign=middle;resizable=0;points=[];autosize=1;" vertex="1" parent="1">
          <mxGeometry x="1057" y="820" width="60" height="20" as="geometry" />
        </mxCell>
        <mxCell id="ywDv_ColvlXOYt9Vahqf-56" value="指标" style="text;html=1;align=center;verticalAlign=middle;resizable=0;points=[];autosize=1;" vertex="1" parent="1">
          <mxGeometry x="1137" y="820" width="40" height="20" as="geometry" />
        </mxCell>
        <mxCell id="ywDv_ColvlXOYt9Vahqf-57" value="容器" style="text;html=1;align=center;verticalAlign=middle;resizable=0;points=[];autosize=1;" vertex="1" parent="1">
          <mxGeometry x="1076" y="750" width="40" height="20" as="geometry" />
        </mxCell>
        <mxCell id="ywDv_ColvlXOYt9Vahqf-58" value="指标" style="text;html=1;align=center;verticalAlign=middle;resizable=0;points=[];autosize=1;" vertex="1" parent="1">
          <mxGeometry x="1146" y="750" width="40" height="20" as="geometry" />
        </mxCell>
      </root>
    </mxGraphModel>
  </diagram>
</mxfile>
